<?xml version="1.0" standalone="no"?>
<svg viewBox="0 0 200 200" xmlns="http://www.w3.org/2000/svg">
  <path fill="#FF0066" d="M45.1,-66.1C58.6,-61.4,69.9,-49.2,73.3,-35.4C76.8,-21.5,72.3,-5.9,66.4,7C60.5,19.8,53.2,29.8,45.7,40.9C38.1,51.9,30.2,64,19.6,67.5C9,71,-4.4,65.8,-15.2,59.2C-26,52.7,-34.3,44.8,-47.2,37C-60.2,29.2,-77.8,21.4,-83.5,9.4C-89.3,-2.6,-83.2,-18.9,-75.7,-34.3C-68.2,-49.6,-59.3,-64.1,-46.5,-69.1C-33.6,-74,-16.8,-69.6,-0.5,-68.7C15.8,-67.9,31.5,-70.7,45.1,-66.1Z" transform="translate(100 100)" />
</svg>
