<svg xmlns="http://www.w3.org/2000/svg" width="128" height="128" viewBox="0 0 128 128" id="main-conversation-small" data-supported-dps="128x128">
  <path d="M64 0a64 64 0 0164 64H0A64 64 0 0164 0z" fill="#eef3f8"/>
  <path d="M33.05 46V11h-4.88a64 64 0 00-5.27 4h5.15v27h-17V28.12a64.21 64.21 0 00-5 8.82V46z" fill="#f4faff"/>
  <path d="M23.65 18a2.41 2.41 0 012.4 2.41v6.18a2.41 2.41 0 01-2.4 2.41h-4.19a2.42 2.42 0 01-2.41-2.41v-6a63.41 63.41 0 00-6 7.54V42h17V15H22.9q-1.71 1.44-3.32 3zm-.6 17.55A1.45 1.45 0 0121.61 37H14.5a1.45 1.45 0 01-1.45-1.45v-2.1A1.45 1.45 0 0114.5 32h7.11a1.45 1.45 0 011.44 1.45z" fill="#cfdee0"/>
  <path d="M19.46 29h4.19a2.41 2.41 0 002.4-2.41v-6.18a2.41 2.41 0 00-2.4-2.41h-4.07c-.87.84-1.71 1.69-2.53 2.58v6A2.42 2.42 0 0019.46 29z" fill="#f1f4e4"/>
  <rect x="13.05" y="32" width="10" height="5" rx="1.45" fill="#f1f4e4"/>
  <path d="M121.1 35l-.51-1H76.05V1.14l-1-.18V35z" fill="#dae7ef"/>
  <path d="M86.31 30h-6.26V5h8.84a63.75 63.75 0 00-12.84-3.86V34h44.54c-.73-1.36-1.5-2.7-2.32-4z" fill="#fff"/>
  <path d="M80.05 10.23a9.19 9.19 0 002.18.85c1.34.36 3.11 0 5-1.34a3.16 3.16 0 014.6 1.2 7.41 7.41 0 006.17 3.4c1.54 0 2.44 1 3.56 1.95a4.06 4.06 0 011.48-.29 4 4 0 013.65 2.38h2.24a64.32 64.32 0 00-6.31-5.46 10.25 10.25 0 01-7.95-5.15Q91.86 6.26 88.89 5h-8.84z" fill="#f4f2ef"/>
  <path d="M104.43 26.54h11.5a63.86 63.86 0 00-7-8.14h-2.24a4 4 0 11-5.13-2.09c-1.12-1-2-1.91-3.56-1.95a7.41 7.41 0 01-6.15-3.4 3.16 3.16 0 00-4.6-1.2c-1.92 1.34-3.69 1.7-5 1.34a9.19 9.19 0 01-2.18-.85V18h7c7.04 0 10.07 8.54 17.36 8.54z" fill="#eaddda"/>
  <path d="M103.05 16a4.06 4.06 0 00-1.48.29 7.61 7.61 0 005.13 2.09 4 4 0 00-3.65-2.38z" fill="#fff8f5"/>
  <path d="M99.05 20a4 4 0 107.65-1.62 7.61 7.61 0 01-5.13-2.09A4 4 0 0099.05 20z" fill="#fff8f5"/>
  <path d="M104.43 26.54c-7.29 0-10.32-8.54-17.35-8.54h-7v5h6.26a1.74 1.74 0 011.74 1.74 1.74 1.74 0 01-1.74 1.74 1.74 1.74 0 011.74 1.74A1.74 1.74 0 0186.31 30h32a69.82 69.82 0 00-2.34-3.46z" fill="#d6e2ed"/>
  <path d="M102.63 12.94a64.31 64.31 0 00-7.95-5.15 10.25 10.25 0 007.95 5.15z" fill="#efe9e1"/>
  <path d="M88.05 28.26a1.74 1.74 0 00-1.74-1.74 1.74 1.74 0 001.74-1.74A1.74 1.74 0 0086.31 23h-6.26v7h6.26a1.74 1.74 0 001.74-1.74z" fill="#e8f3ff"/>
  <path fill="#0d2135" d="M109.31 51.71l-11.92 8.17L91 55l-5 6 9 7 4.7-.02 12.87-4.15-3.26-12.12z"/>
  <path d="M95 68c-.76.18-4.14 1.9-5.18.67a3.63 3.63 0 00-3.58-1.16h-1.19c-.92.35.7 1.25.7 1.19l-1.37-.08a.71.71 0 00-.1 1.41h.42c-.49.46.09 1.42.59 1.39-.56.26-.16 1.39.36 1.35a.83.83 0 00.6 1.43l2.63.17a4 4 0 002.6-1 2.15 2.15 0 011.27-.37H97z" fill="#955646"/>
  <path d="M92.61 118.32l-.37-6L86 113a10.26 10.26 0 01-1 7l1.4.44h6.21z" fill="#394450"/>
  <path d="M78.49 125h14.72l-.6-6.68c-3.66 0-3.63 2.42-6.68 0C83.74 120.81 80 121 78 122c-1.38.71-1.06 3 .49 3z" fill="#0d2135"/>
  <path fill="#004182" d="M94 86.37V115H81V85.66l13 .71z"/>
  <path d="M72 118.65l2.3-5.57-6.37-3.08c-.73 3.69-.87 4.95-2 5.72l-.49 2.1 5.56 2.72z" fill="#394450"/>
  <path d="M57 118l13 6 2-5.35c-3.27-1.66-3.26-.15-5-3.65-2.79 1.07-7.19 0-9.28 0a1.59 1.59 0 00-.72 3z" fill="#0d2135"/>
  <path d="M98.52 79.81l-17.11-.61a6.66 6.66 0 00-6.34 4L62.8 111.51l11.65 4.63 9.73-24c.59-1.43 2.58-1.36 4.11-1.13l20.78 2.74c8.93 1.31 12.75-5.36 12.75-9.64z" fill="#0a66c2"/>
  <path d="M120.81 47c-.74-3-.83-4.76.33-6.79a8.54 8.54 0 001.73-4.72c.13-9.84-13.87-11.09-15.55-1.44 0 1.49-1.13 3-1.16 3.72s1.09.69.94 2.1c-.15 2.52 0 2.62 2.53 3.61C111 44 112 51 112 51l9.46-1.19c-.07-.23-.46-2.22-.65-2.81z" fill="#955646"/>
  <path d="M116.29 27c-2.82-.38-6 .67-7.33 2.68a.85.85 0 00.15 1.25c1.43.86 3.53-.39 4.12-1.13a1.12 1.12 0 111.77 1.45l-1.68 2.16s-1.32 1.68-.32 2.87a2 2 0 013.89.43c0 2.77 1.77 4.56 3.79 4.46 5.03-6.34 2.01-13.27-4.39-14.17zM125 69.8l-3 19.31c-11-.39-13.42-7.44-23.4-9.3 1.73-10 5.35-11.64 5.58-17.25.22-5.12 2.24-6.8 4.77-10.13a19.12 19.12 0 001.1-2.43l11.21-1s1 2.69 1.47 3.78c1.63 3.73 3.9 8.09 2.27 17.02z" fill="#0d2135"/>
  <path fill="#0d2135" d="M108 63l-9 4 2 8 10-1-3-11z"/>
  <path fill="#eef3f8" d="M95 67.992l3.997-1L101 74.997l-3.997 1z"/>
  <path fill="#f9fafb" d="M88 53l-5 5 3 3 5-6-3-2z"/>
  <path fill="#b9af9f" d="M43 23h38v47H43z"/>
  <path fill="#fff" d="M44 24h36v45H44z"/>
  <path d="M70.88 55H76v10H65v-4.12A5.88 5.88 0 0170.88 55z" fill="#b4c6d8"/>
  <circle cx="64" cy="52" r="5" fill="#1b4481"/>
  <path d="M49 40h16.48A3.52 3.52 0 0169 43.52V47H49v-7z" fill="#e7592f"/>
  <path d="M56.46 49.7L61.25 65H49V50.86A3.84 3.84 0 0152.82 47a3.81 3.81 0 013.64 2.7z" fill="#efb7a8"/>
  <path d="M69 27v13H49V27h3.35a6.66 6.66 0 1013.3 0z" fill="#b4c6d8"/>
  <path d="M72.42 34h.15A3.42 3.42 0 0176 37.42V55h-.15A6.85 6.85 0 0169 48.15V37.42A3.42 3.42 0 0172.42 34z" fill="#efb7a8"/>
  <path d="M70 34a3.54 3.54 0 017 0z" fill="#1b4481"/>
  <path d="M70 31a3.54 3.54 0 017 0z" fill="#1b4481"/>
  <path fill="#b4c6d8" d="M48.87 114.93l-5.69.42.28 3.68 5.38-.95.03-3.15z"/>
  <path d="M44.1 126l15.79-3.58.39-.17a1.62 1.62 0 00-1.5-1.32c-3.35-.26-7.94.81-9.93-4.16-2.52.24-2.35 1.55-2.35 1.55l-3.12.1.72 7.58z" fill="#e7a33e"/>
  <path d="M47.75 119.25a.23.23 0 01-.2-.1.25.25 0 01.06-.35l1.42-1a.25.25 0 01.35.06.24.24 0 01-.06.34l-1.42 1a.28.28 0 01-.15.05zM51.14 122.18a.16.16 0 01-.1 0 .23.23 0 01-.13-.32l.72-1.68A.25.25 0 0152 120a.24.24 0 01.13.33l-.76 1.67a.26.26 0 01-.23.18zM53.25 122.65h-.06a.25.25 0 01-.18-.3l.41-1.68a.26.26 0 01.3-.18.25.25 0 01.19.3l-.42 1.68a.24.24 0 01-.24.18zM49.24 121a.23.23 0 01-.17-.07.25.25 0 010-.35l1.26-1.4a.25.25 0 01.36 0 .24.24 0 010 .35l-1.26 1.4a.27.27 0 01-.19.07zM59.1 124.6l-12.84 2.93a1.78 1.78 0 01-2.12-1.34l-.08-.41L60.28 122l.15.49a1.77 1.77 0 01-1.33 2.11z" fill="#09223b"/>
  <path d="M27.62 90.08l-4.48-8.22s10.33-.41 17.28 1.49c5.21 1.42 7.45 7.24 8.32 11.49 1.31 6.45 2.09 14.44 2.68 18.3a2.09 2.09 0 01-1.79 2.38L40 117V98.57c-1.46-5.32-2.65-5.64-5.25-6.64z" fill="#ba8c90"/>
  <path d="M5.84 87.73L23 79s5.4 1.06 11.91 2.7c6.72 1.69 11.91 3.48 5.89 17.12l-8.43-1.07s3.35-6 .94-5.75c-8.4.93-16.19 2.27-16.19 2.27-7.12-.4-9.18-2.02-11.28-6.54z" fill="#cf999b"/>
  <path fill="#d0e8ff" d="M111.03 46.71L110 50l3.2-.17-2.17-3.12z"/>
  <path d="M25.23 38.25a4.25 4.25 0 010-.5c-.46-9.17-13.75-9.66-14.76-.38-.35 2.43 1.25 4.81 2.29 6.72 1.18 2.33 1.37 3.59-.8 5.91l-1.21 4.62L21 50c0-.19-1.46-3 1-3.65s2.64-.72 2.78-3.11c0-1.34 1-1.08 1.12-1.86s-.62-1.56-.67-3.13z" fill="#de9885"/>
  <path d="M22.31 30.38c-2.7 1.13-4.51-1.89-7.23.35a1.38 1.38 0 01-.93.31c-3.8-.27-4 4.25-4.23 6.78s-1 2.54 2.64 6.17c2.29 0 3.63-2.32 3.23-4.61a1.77 1.77 0 013.31-1.09c.42-2.6 4-2 5.92-3.83a2.46 2.46 0 00-2.71-4.08z" fill="#2d1c17"/>
  <path d="M11.19 34.62a4 4 0 00-2-2.55A3.69 3.69 0 005.9 32a4.55 4.55 0 00-1.59 1.4 6.59 6.59 0 00-1.3 4c0 1 .24 1.9.24 2.86a2.42 2.42 0 01-1.07 2.29 6 6 0 005.32-.15c1.62-.92 1.06-4 3.94-4.9 1.02-.31-.93-2.06-.25-2.88z" fill="#2d1c17"/>
  <path d="M21 50a29.54 29.54 0 003 6l6 10-3 5v9L5.85 87.75C2 77.74 8.17 54.19 11.94 50z" fill="#4f6b5c"/>
  <path d="M51.6 58.25c-.24-.21-.47 0-.7.12-.28-.22-.82.07-.82.07a5.34 5.34 0 01-3.06.7c-.65 0-1-.67-.71-.9l1.11-.87a.49.49 0 00-.59-.79l-1.37 1c-.58.39-1.53.16-3.22 2.06l-1.24.87L30 66l-6 7a8.26 8.26 0 009.26-1.37l9.08-8.58a2.31 2.31 0 011.5-.84 15.13 15.13 0 007.46-2.55.47.47 0 00.11-.67c.23-.18.47-.49.19-.74z" fill="#de9885"/>
  <path d="M39.94 94a1.45 1.45 0 001.18-1.68A1.46 1.46 0 0039.55 91L9.44 94.84c-.9.13-.68 1.64.23 1.56z" fill="#e0a191"/>
  <path d="M15.53 85.61L17.45 77a11 11 0 00.3-3.07A6.16 6.16 0 0013.32 68a13.61 13.61 0 00-1.9-.5l-10.75-2 4.41 18.55z" fill="#8f5849"/>
  <path d="M37.28 125h-27a4.58 4.58 0 01-4.49-5.54l9-43.19a.5.5 0 111 .2l-3.95 19 26.76-2.2a.51.51 0 01.54.44l2.7 26.16a4.59 4.59 0 01-4.56 5.13zM11.55 96.51l-4.8 23.15a3.59 3.59 0 003.51 4.34h27a3.6 3.6 0 003.57-4l-2.64-25.69-26.48 2.22a.44.44 0 01-.16-.02z" fill="#38434f"/>
  <path d="M19.79 73.81A8.14 8.14 0 0014 66.08a16.52 16.52 0 00-2.23-.6l-9.4-1.74a1.47 1.47 0 00-1.7 1.78l10.75 2a13.61 13.61 0 011.9.5 6.16 6.16 0 014.43 5.92 11 11 0 01-.3 3.08l-1.92 8.61A2.19 2.19 0 0018 83.92l1.45-6.48a12.71 12.71 0 00.34-3.63z" fill="#e0a191"/>
  <circle cx="15.22" cy="76.32" r=".85" fill="#e8f3ff"/>
  <path d="M30 115.48L40 117l4.31-24.23c1.06-5.89-2-9.44-9.13-9.79l-9.66.66-.79 9 7-.5a1.22 1.22 0 011.36 1.46l-4.29 20.14a1.44 1.44 0 001.2 1.74z" fill="#cf999b"/>
  <path fill="#b4c6d8" d="M35.45 116.3l-5.64-.86-.54 3.65 5.45.27.73-3.06z"/>
  <path d="M28.52 126.41l16.3-.08.18-.33a1.72 1.72 0 00-1.21-1.67c-3.22-1-7.93-1-8.76-6.27-2.51-.33-2.63 1-2.63 1l-3.07-.6-1 7.56z" fill="#f4b060"/>
  <path d="M33.46 120.27a.25.25 0 01-.23-.15.24.24 0 01.13-.33l1.61-.67a.25.25 0 01.33.14.25.25 0 01-.14.32l-1.61.67a.15.15 0 01-.09.02zM36.1 123.88a.28.28 0 01-.15 0 .25.25 0 01-.05-.35L37 122a.25.25 0 11.4.3l-1.08 1.47a.23.23 0 01-.22.11zM38.06 124.81a.2.2 0 01-.11 0 .23.23 0 01-.11-.33l.77-1.55a.26.26 0 01.34-.11.26.26 0 01.11.34l-.78 1.54a.24.24 0 01-.22.11zM34.52 122.27a.24.24 0 01-.2-.11.25.25 0 01.06-.35l1.54-1.08a.25.25 0 11.29.41l-1.54 1.08a.3.3 0 01-.15.05zM28.33 126H45v.22a1.77 1.77 0 01-1.73 1.78H30.1a1.77 1.77 0 01-1.77-1.77V126z" fill="#09223b"/>
  <path d="M87.68 93.58a1.46 1.46 0 01-1.18-1.68 1.46 1.46 0 011.57-1.33l30.11 3.88c.9.13.68 1.64-.22 1.57z" fill="#e0a191"/>
  <path d="M112.1 85.61L110.17 77a11.35 11.35 0 01-.29-3.07A6.16 6.16 0 01114.3 68a14.12 14.12 0 011.91-.5l10.75-2-4.24 18.54z" fill="#8f5849"/>
  <path d="M117.37 125h-27a4.58 4.58 0 01-4.56-5.14l2.7-26.15a.5.5 0 01.54-.44l26.84 2.25-4-19a.51.51 0 01.39-.59.49.49 0 01.59.39l9 43.19a4.6 4.6 0 01-4.49 5.54zM89.44 94.31L86.78 120a3.6 3.6 0 003.57 4h27a3.59 3.59 0 003.51-4.34l-4.8-23.15a.47.47 0 01-.17 0z" fill="#38434f"/>
  <path d="M107.84 73.81a8.13 8.13 0 015.77-7.73 16.13 16.13 0 012.23-.6l9.42-1.74a1.47 1.47 0 011.7 1.78l-10.75 2a14.12 14.12 0 00-1.91.5 6.16 6.16 0 00-4.42 5.92 11.38 11.38 0 00.29 3.08l1.93 8.61a2.21 2.21 0 01-2.48-1.69l-1.44-6.48a12.71 12.71 0 01-.34-3.65z" fill="#e0a191"/>
  <circle cx="112.41" cy="76.32" r=".85" fill="#e8f3ff"/>
  <path d="M82.6 53.25a4.77 4.77 0 01-2.08-2.36c-.55-1.54.51-2.61.42-3.37l-.26-1.25-.43-.27a.54.54 0 01.56-.93l.68.38c.43.11 1 2.23 1.39 3L88 53l-3 3z" fill="#955646"/>
  <path d="M120.75 45.18l-9.87 1.49.57 2.17a1.5 1.5 0 001.63 1.16l8.92-1z" fill="#f9fafb"/>
</svg>
